<svg width="14" height="14" viewBox="0 0 14 14" fill="none" xmlns="http://www.w3.org/2000/svg">
<path d="M7 0.5C3.41594 0.5 0.5 3.41594 0.5 7C0.5 10.5841 3.41594 13.5 7 13.5C10.5841 13.5 13.5 10.5841 13.5 7C13.5 3.41594 10.5841 0.5 7 0.5ZM9.35344 8.64656C9.40182 8.69253 9.44051 8.74772 9.46723 8.80888C9.49395 8.87003 9.50816 8.93592 9.50901 9.00265C9.50986 9.06938 9.49735 9.13561 9.47221 9.19743C9.44706 9.25925 9.4098 9.31541 9.36261 9.36261C9.31541 9.4098 9.25925 9.44706 9.19743 9.47221C9.13561 9.49735 9.06938 9.50986 9.00265 9.50901C8.93592 9.50816 8.87003 9.49395 8.80888 9.46723C8.74772 9.44051 8.69253 9.40182 8.64656 9.35344L7 7.70719L5.35344 9.35344C5.25891 9.44325 5.13303 9.49258 5.00265 9.49091C4.87227 9.48924 4.7477 9.4367 4.6555 9.3445C4.5633 9.2523 4.51076 9.12773 4.50909 8.99735C4.50742 8.86697 4.55675 8.74109 4.64656 8.64656L6.29281 7L4.64656 5.35344C4.55675 5.25891 4.50742 5.13303 4.50909 5.00265C4.51076 4.87227 4.5633 4.7477 4.6555 4.6555C4.7477 4.5633 4.87227 4.51076 5.00265 4.50909C5.13303 4.50742 5.25891 4.55675 5.35344 4.64656L7 6.29281L8.64656 4.64656C8.74109 4.55675 8.86697 4.50742 8.99735 4.50909C9.12773 4.51076 9.2523 4.5633 9.3445 4.6555C9.4367 4.7477 9.48924 4.87227 9.49091 5.00265C9.49258 5.13303 9.44325 5.25891 9.35344 5.35344L7.70719 7L9.35344 8.64656Z" fill="#AEAEB2"/>
</svg>
